<svg width="50" height="50" viewBox="0 0 50 50" fill="none" xmlns="http://www.w3.org/2000/svg">
<circle cx="25" cy="25" r="25" fill="#FFE4C3"/>
<path fill-rule="evenodd" clip-rule="evenodd" d="M32.9557 22.844C33.3089 20.5324 31.5086 19.2898 29.047 18.4608L29.8455 15.3295L27.8954 14.8545L27.118 17.9033C26.606 17.7784 26.0796 17.6606 25.5565 17.5439L26.3395 14.475L24.3909 14L23.5919 17.1302C23.1676 17.0358 22.7512 16.9424 22.3469 16.8441L22.3492 16.8343L19.6605 16.178L19.1418 18.2138C19.1418 18.2138 20.5883 18.5379 20.5578 18.558C21.3474 18.7507 21.4907 19.2615 21.4662 19.6665L20.5567 23.2338C20.6111 23.2473 20.6816 23.2669 20.7594 23.2973L20.5539 23.2473L19.2784 28.2445C19.1818 28.479 18.9369 28.8308 18.385 28.6972C18.4044 28.7249 16.9679 28.3514 16.9679 28.3514L16 30.5338L18.5377 31.1521C18.8241 31.2223 19.1071 31.2945 19.387 31.3659C19.5683 31.4121 19.7482 31.458 19.927 31.5028L19.1202 34.6705L21.0676 35.1455L21.8672 32.012C22.3986 32.1532 22.915 32.2835 23.4203 32.4062L22.624 35.525L24.5736 36L25.3805 32.8388C28.705 33.4539 31.2054 33.2058 32.2566 30.2667C33.1045 27.8998 32.2149 26.5344 30.4658 25.6436C31.7396 25.3553 32.6997 24.5361 32.9557 22.844ZM28.5006 28.9508C27.9472 31.1232 24.4683 30.2243 22.878 29.8134C22.7356 29.7766 22.6083 29.7437 22.4996 29.7173L23.5702 25.5214C23.703 25.5538 23.8653 25.5894 24.0491 25.6298C25.6944 25.9907 29.0655 26.7304 28.5006 28.9508ZM24.3798 23.6827C25.7068 24.0288 28.5992 24.7832 29.1031 22.8098C29.6183 20.7909 26.8057 20.1824 25.432 19.8852C25.2776 19.8518 25.1414 19.8223 25.0301 19.7952L24.0594 23.6007C24.1513 23.6231 24.2591 23.6512 24.3798 23.6827Z" fill="#F7931A"/>
</svg>
