<svg width="50" height="50" viewBox="0 0 50 50" fill="none" xmlns="http://www.w3.org/2000/svg">
<circle cx="25" cy="25" r="25" fill="#E0E2FF"/>
<path fill-rule="evenodd" clip-rule="evenodd" d="M27.2923 16H22.7076C22.3841 15.9998 22.0857 16.1696 21.9274 16.444L14.8282 28.763C14.6762 29.0271 14.6762 29.3489 14.8282 29.613L17.099 33.555C17.2571 33.8298 17.5555 34 17.8792 34H32.1207C32.444 33.9996 32.7419 33.8294 32.8999 33.555L35.1717 29.613C35.3237 29.3489 35.3237 29.0271 35.1717 28.763L28.0725 16.444C27.9141 16.1696 27.6158 15.9998 27.2923 16ZM20.2168 29.188L24.9999 20.901L29.7831 29.188H20.2168Z" fill="#767DFF"/>
</svg>
