<svg width="65" height="65" viewBox="0 0 65 65" fill="none" xmlns="http://www.w3.org/2000/svg">
<g clip-path="url(#clip0_312_570)">
<path d="M64.891 32.5751C64.891 50.4356 50.4128 64.9134 32.5527 64.9134C14.6922 64.9134 0.214355 50.4356 0.214355 32.5751C0.214355 14.715 14.6922 0.236816 32.5527 0.236816C50.4128 0.236816 64.891 14.715 64.891 32.5751Z" fill="#020100"/>
<path d="M52.8075 24.1546C50.9806 22.8769 49.0271 21.5147 47.1157 20.163C47.0735 20.1313 47.0313 20.0996 46.9785 20.068C46.7673 19.9096 46.5244 19.7406 46.2287 19.6456L46.2076 19.635C41.0966 18.3995 35.9012 17.1323 30.8747 15.9074C26.3128 14.7986 21.7615 13.6898 17.1997 12.581C17.0835 12.5493 16.9673 12.5177 16.8406 12.486C16.4288 12.3698 15.9536 12.2431 15.4467 12.3065C15.2989 12.3276 15.1722 12.3804 15.056 12.4543L14.9293 12.5599C14.7287 12.75 14.6231 12.9929 14.5703 13.1301L14.5386 13.2146V13.7004L14.5597 13.7743C17.4425 21.8526 20.3993 30.047 23.2505 37.9775C25.4469 44.0811 27.7278 50.4064 29.956 56.6156C30.0932 57.038 30.484 57.3126 30.9697 57.3548H31.0753C31.5294 57.3548 31.9307 57.1331 32.1313 56.774L40.4947 44.5774C42.5328 41.6101 44.5708 38.6322 46.6089 35.6649C47.4431 34.4505 48.2773 33.2256 49.1116 32.0112C50.4843 30.0048 51.8994 27.9351 53.3038 25.9181L53.3777 25.8125V25.6858C53.4094 25.3162 53.42 24.5559 52.8075 24.1546ZM43.008 28.6003C41.0438 29.6246 39.0374 30.6806 37.0205 31.7261C38.1927 30.4694 39.3754 29.2022 40.5475 27.9456C42.0153 26.3616 43.5465 24.7249 45.046 23.1198L45.0777 23.0881C45.2044 22.9191 45.3628 22.7607 45.5318 22.5918C45.6479 22.4756 45.7746 22.3595 45.8908 22.2222C46.6722 22.7607 47.4642 23.3098 48.2245 23.8484C48.7736 24.2391 49.3333 24.6298 49.9035 25.0205C47.5804 26.2032 45.2572 27.4176 43.008 28.6003ZM37.9603 28.0935C36.4503 29.7302 34.8874 31.4093 33.3351 33.0672C30.3256 29.4134 27.2526 25.7069 24.2748 22.1271C22.9231 20.5009 21.5609 18.8641 20.2092 17.2379L20.1987 17.2274C19.8924 16.8789 19.5967 16.4987 19.3011 16.1397C19.111 15.8968 18.9104 15.6645 18.7097 15.4216C19.9347 15.7384 21.1702 16.0341 22.3845 16.3192C23.4511 16.5727 24.5599 16.8366 25.6475 17.1112C31.7723 18.6001 37.9075 20.0891 44.0323 21.578C41.9942 23.7534 39.9456 25.9604 37.9603 28.0935ZM32.6487 48.6746C32.7649 47.5658 32.8916 46.4254 32.9972 45.306C33.0922 44.4084 33.1873 43.4897 33.2823 42.6133C33.4302 41.2088 33.5886 39.7515 33.7153 38.326L33.747 38.0725C33.8526 37.1644 33.9582 36.2246 34.0215 35.2847C34.1377 35.2214 34.2644 35.158 34.4017 35.1052C34.5601 35.0313 34.7185 34.9679 34.8769 34.8729C37.3162 33.5951 39.7555 32.3174 42.2054 31.0502C44.6447 29.783 47.1474 28.4736 49.629 27.1748C47.3692 30.4483 45.0988 33.7535 42.9024 36.9743C41.0121 39.7304 39.0691 42.571 37.1367 45.3694C36.3764 46.4887 35.5844 47.6292 34.8346 48.7274C33.9898 49.9524 33.1239 51.209 32.2791 52.4656C32.3847 51.1984 32.5115 49.9207 32.6487 48.6746ZM17.9283 17.9138C17.791 17.5336 17.6432 17.1429 17.5165 16.7733C20.3676 20.2158 23.2399 23.6794 26.0383 27.0375C27.485 28.7799 28.9317 30.5117 30.3784 32.2646C30.6635 32.592 30.9486 32.9404 31.2232 33.2784C31.5822 33.7113 31.9412 34.1654 32.3319 34.5983C32.2052 35.686 32.0996 36.7842 31.9835 37.8402C31.9095 38.5794 31.8356 39.3186 31.7511 40.0683V40.0789C31.7195 40.5541 31.6561 41.0293 31.6033 41.4939C31.5294 42.1381 31.3604 43.5953 31.3604 43.5953L31.3499 43.6693C31.1598 45.8023 30.9275 47.9566 30.7057 50.0474C30.6107 50.9133 30.5262 51.8003 30.4312 52.6874C30.3784 52.529 30.315 52.3706 30.2622 52.2227C30.1038 51.8003 29.9454 51.3568 29.7976 50.9239L28.6677 47.7876C25.0879 37.8297 21.5081 27.8823 17.9283 17.9138Z" fill="white"/>
</g>
<defs>
<clipPath id="clip0_312_570">
<rect width="65" height="65" fill="white"/>
</clipPath>
</defs>
</svg>
