<svg width="20" height="21" viewBox="0 0 20 21" fill="none" xmlns="http://www.w3.org/2000/svg">
<g clip-path="url(#clip0_2402_801)">
<path d="M15.0001 7.58333C15.0001 8.13587 14.7806 8.66577 14.3899 9.05647C13.9992 9.44717 13.4693 9.66667 12.9167 9.66667C12.3642 9.66667 11.8343 9.44717 11.4436 9.05647C11.0529 8.66577 10.8334 8.13587 10.8334 7.58333C10.8334 7.0308 11.0529 6.50089 11.4436 6.11019C11.8343 5.71949 12.3642 5.5 12.9167 5.5C13.4693 5.5 13.9992 5.71949 14.3899 6.11019C14.7806 6.50089 15.0001 7.0308 15.0001 7.58333ZM14.9951 13.305C14.9493 14.6291 14.6187 15.9277 14.0259 17.1125C13.4797 18.1455 12.6595 19.0081 11.6553 19.6056C10.6512 20.2032 9.50183 20.5126 8.33339 20.5H7.50006V15.9167C7.49633 15.1443 7.18784 14.4046 6.64167 13.8584C6.09549 13.3122 5.35579 13.0037 4.58339 13H5.53411e-05V12.1667C-0.0125599 10.9982 0.296884 9.84889 0.89444 8.84473C1.492 7.84057 2.35458 7.02039 3.38756 6.47417C4.57236 5.88133 5.871 5.55077 7.19506 5.505C8.40909 3.93687 9.96819 2.66961 11.7513 1.80161C13.5344 0.933605 15.4936 0.48821 17.4767 0.499999C17.8067 0.497914 18.1339 0.560985 18.4394 0.685596C18.745 0.810207 19.023 0.993906 19.2574 1.22616C19.4918 1.45842 19.6781 1.73466 19.8055 2.03906C19.933 2.34345 19.9991 2.67 20.0001 3C20.0142 4.98684 19.5699 6.95019 18.7019 8.73743C17.8339 10.5247 16.5654 12.0877 14.9951 13.305ZM1.73672 11.3333H3.62172C4.24059 9.95499 4.96758 8.62779 5.79589 7.36417C5.22057 7.49801 4.66309 7.69941 4.13506 7.96417C3.5 8.29951 2.95231 8.77891 2.53583 9.36397C2.11936 9.94903 1.84568 10.6235 1.73672 11.3333ZM13.1359 14.7042C11.8723 15.5325 10.5451 16.2595 9.16672 16.8783V18.7633C9.87656 18.6544 10.551 18.3807 11.1361 17.9642C11.7211 17.5477 12.2005 17 12.5359 16.365C12.8006 15.837 13.002 15.2795 13.1359 14.7042ZM18.3334 2.97667C18.3273 2.75972 18.2368 2.55371 18.0812 2.40244C17.9256 2.25117 17.7171 2.16658 17.5001 2.16667C13.2001 2.28917 10.2917 3.93667 7.48506 7.85167C6.70184 8.97934 6.01311 10.1698 5.42589 11.4108C6.33582 11.5803 7.17312 12.0213 7.82761 12.6758C8.48209 13.3303 8.92309 14.1676 9.09256 15.0775C10.3336 14.4903 11.5241 13.8015 12.6517 13.0183C16.5634 10.2083 18.2109 7.3 18.3334 2.97667ZM5.10172 15.3992C5.56736 15.8696 5.82856 16.5048 5.82856 17.1667C5.82856 17.8286 5.56736 18.4637 5.10172 18.9342C4.34589 19.6892 2.08339 20.155 1.14506 20.3208L-0.0266113 20.5267L0.179222 19.355C0.345889 18.4167 0.810889 16.1542 1.56589 15.3983C2.04235 14.9439 2.67554 14.6904 3.33397 14.6906C3.99241 14.6907 4.62548 14.9445 5.10172 15.3992ZM4.16672 17.1667C4.16702 17.0572 4.14559 16.9487 4.10368 16.8476C4.06177 16.7465 4.0002 16.6547 3.92256 16.5775C3.76628 16.4213 3.55436 16.3335 3.33339 16.3335C3.11242 16.3335 2.9005 16.4213 2.74422 16.5775C2.42651 17.151 2.20337 17.7721 2.08339 18.4167C2.72823 18.2962 3.34949 18.0728 3.92339 17.755C4.00079 17.6779 4.06214 17.5861 4.1039 17.4852C4.14567 17.3842 4.16702 17.2759 4.16672 17.1667Z" fill="#9395A5"/>
</g>
<defs>
<clipPath id="clip0_2402_801">
<rect width="20" height="20" fill="white" transform="translate(0 0.5)"/>
</clipPath>
</defs>
</svg>
